<svg width="168" height="168" viewBox="0 0 168 168" fill="none" xmlns="http://www.w3.org/2000/svg"><g clip-path="url(#clip0_8021_4369)" fill="#3B3B3B"><path d="M163.195 22.965a6.33 6.33 0 00-8.954-.008l-75.962 75.76L50.87 68.956a6.333 6.333 0 00-8.946-.37 6.333 6.333 0 00-.37 8.946l31.87 34.608a6.312 6.312 0 004.52 2.041h.134a6.324 6.324 0 004.469-1.848L163.17 31.92a6.33 6.33 0 00.008-8.955h.017z"/><path d="M161.666 77.666A6.333 6.333 0 00155.333 84c0 39.337-32.004 71.333-71.333 71.333S12.667 123.337 12.667 84 44.663 12.667 84 12.667a6.333 6.333 0 006.334-6.333A6.327 6.327 0 0084 0C37.682 0 0 37.682 0 84s37.682 84 84 84 84-37.682 84-84a6.333 6.333 0 00-6.334-6.334z"/></g><defs><clipPath id="clip0_8021_4369"><rect width="168" height="168" fill="#fff"/></clipPath></defs></svg>