<svg width="168" height="168" viewBox="0 0 168 168" fill="none" xmlns="http://www.w3.org/2000/svg">
<g clip-path="url(#clip0_8021_4369)">
<path d="M163.195 22.9655C160.726 20.4875 156.71 20.4875 154.241 22.9571L78.2795 98.7167L50.8703 68.9555C48.5015 66.3851 44.4947 66.2171 41.9243 68.5859C39.3539 70.9547 39.1859 74.9615 41.5547 77.5319L73.4243 112.14C74.5919 113.408 76.2215 114.147 77.9435 114.181C77.9939 114.181 78.0359 114.181 78.0779 114.181C79.7495 114.181 81.3623 113.518 82.5467 112.333L163.17 31.9199C165.648 29.4503 165.648 25.4435 163.178 22.9655H163.195Z" fill="#3B3B3B"/>
<path d="M161.666 77.6664C158.172 77.6664 155.333 80.4972 155.333 84C155.333 123.337 123.329 155.333 84 155.333C44.6712 155.333 12.6672 123.337 12.6672 84C12.6672 44.6628 44.6628 12.6672 84 12.6672C87.4944 12.6672 90.3336 9.8364 90.3336 6.3336C90.3336 2.8308 87.5028 0 84 0C37.6824 0 0 37.6824 0 84C0 130.318 37.6824 168 84 168C130.318 168 168 130.318 168 84C168 80.5056 165.169 77.6664 161.666 77.6664Z" fill="#3B3B3B"/>
</g>
<defs>
<clipPath id="clip0_8021_4369">
<rect width="168" height="168" fill="white"/>
</clipPath>
</defs>
</svg>
